<svg xmlns="http://www.w3.org/2000/svg" viewBox="0 0 20.28 20.24"><defs><style>.cls-1{opacity:0.5;}</style></defs><title>kol</title><g id="Layer_2" data-name="Layer 2"><g id="Layer_1-2" data-name="Layer 1"><path class="cls-1" d="M9.5,11.65l-.2.18L3.62,17.52l-.07.07c-.08.11-.15.09-.24,0a10.39,10.39,0,0,1-1.53-1.75A10,10,0,0,1,.3,12.55s0-.1,0-.14l0,0,3.31,3.31,4.89-4.92H.26c-.25,0-.25,0-.26-.25A10.1,10.1,0,0,1,1.45,4.9l.09-.13h0q0,.1,0,.19,0,2.15,0,4.3c0,.22,0,.22.22.22H8.58L8.43,9.3,2.75,3.63c-.23-.23-.26-.16,0-.43A10,10,0,0,1,7.7.3l.15,0,0,.07c-.13.11-.27.22-.4.34L4.66,3.51c-.1.1-.09.16,0,.25l4.7,4.69.14.12c0-.09,0-.15,0-.21q0-4.05,0-8.11c0-.24,0-.24.25-.25a10.07,10.07,0,0,1,5.61,1.44l.17.12-.25,0H11c-.15,0-.2,0-.2.19q0,3.31,0,6.61s0,.1,0,.19l.16-.14,5.77-5.76c.1-.1.16-.12.28,0A10.07,10.07,0,0,1,20,7.7l0,.1a.31.31,0,0,1,0,.07L16.65,4.55,11.75,9.48H20c.25,0,.25,0,.26.24a10.11,10.11,0,0,1-1.44,5.6l-.09.14h0v-.17q0-2.16,0-4.31c0-.22,0-.22-.22-.22H11.74l0,0,.13.14,5.7,5.69,0,0c.13.09.12.17,0,.29a10.24,10.24,0,0,1-2.92,2.2,10.07,10.07,0,0,1-2.06.76l-.19,0,0,0,3.27-3.27-4.92-5v.21q0,4,0,8.08c0,.23,0,.23-.24.24A10.12,10.12,0,0,1,4.9,18.78l-.1-.07s0,0,0-.06H9.29c.22,0,.22,0,.22-.21q0-3.28,0-6.56C9.51,11.82,9.51,11.76,9.5,11.65Z"/></g></g></svg>