<svg xmlns="http://www.w3.org/2000/svg" viewBox="0 0 198.5 9.55"><defs><style>.cls-1{opacity:0.5;}</style></defs><title>kol2</title><g id="Layer_2" data-name="Layer 2"><g id="Layer_1-2" data-name="Layer 1"><path class="cls-1" d="M99.7,5.5l-.09.09L96.92,8.27l0,0c0,.05-.07,0-.11,0a4.9,4.9,0,0,1-.72-.83,4.72,4.72,0,0,1-.7-1.55V5.85h0L96.93,7.4l2.31-2.32H95.34c-.12,0-.12,0-.12-.12a4.77,4.77,0,0,1,.68-2.64l0-.06h0s0,.06,0,.09q0,1,0,2c0,.1,0,.1.1.1h3.2l-.08-.08L96.51,1.71c-.11-.11-.12-.08,0-.2A4.74,4.74,0,0,1,98.85.14h.07l0,0-.19.16L97.41,1.66s0,.07,0,.12L99.64,4,99.7,4s0-.07,0-.1q0-1.91,0-3.83c0-.11,0-.11.12-.12a4.75,4.75,0,0,1,2.65.68l.08.05h-2.16c-.07,0-.09,0-.09.09q0,1.56,0,3.12s0,0,0,.09l.08-.07,2.72-2.72s.08-.06.13,0a4.75,4.75,0,0,1,1.41,2.38v.08l-1.57-1.57-2.31,2.33h3.9c.12,0,.12,0,.12.11a4.77,4.77,0,0,1-.68,2.64l0,.07h0V7.21q0-1,0-2c0-.1,0-.1-.1-.1h-3.18v0l.06.07,2.69,2.69,0,0c.06,0,.06.08,0,.14a4.83,4.83,0,0,1-1.38,1,4.75,4.75,0,0,1-1,.36l-.09,0v0l1.54-1.54L100.3,5.52v.1q0,1.91,0,3.81c0,.11,0,.11-.11.11a4.77,4.77,0,0,1-2.65-.68l0,0v0H99.6c.11,0,.11,0,.11-.1q0-1.55,0-3.1S99.7,5.55,99.7,5.5Z"/><g class="cls-1"><polygon points="109.17 4.52 198.5 4.77 109.17 5.02 109.17 4.52"/></g><g class="cls-1"><polygon points="89.33 5.02 0 4.77 89.33 4.52 89.33 5.02"/></g></g></g></svg>