<svg xmlns="http://www.w3.org/2000/svg" viewBox="0 0 748.45 70.59"><defs><style>.cls-1{fill:#fff;}</style></defs><title>Asset 1</title><g id="Layer_2" data-name="Layer 2"><g id="Layer_1-2" data-name="Layer 1"><path class="cls-1" d="M29,43.12c0-1.12-.88-1.92-1.92-2.79C20.76,35,10.86,26.19,2.87,18.6a4.45,4.45,0,0,1-1.36-3.35,8.87,8.87,0,0,1,1-3.83C7.9,2.56,15.25.08,17.25,0c1,0,9.18,1.2,14.53,10.78a4.68,4.68,0,0,1,.4,1.92c0,1.36-3,7.11-4.39,7.11-1.12,0-2.48-3-4.63-5.83C18.37,7,13.33,4.31,13.1,4.31c-1.12,0-5.43,4-5.43,5.59,0,.16.08.24.16.4,6.95,6.63,24.11,22.12,26.75,24.11a2.26,2.26,0,0,1,.64,1.84,14.3,14.3,0,0,1-1.52,5.19c-5,10.62-14.37,14-15.41,14-.8,0-5.91-1.36-10.78-5.67S0,40.8,0,38.89c0-1.76,3.19-7.11,4.87-7.11s4,4.39,7.27,8.54c4.63,5.83,9.34,9.5,10,9.5C26,49.19,29,44.88,29,43.12Z"/><path class="cls-1" d="M100.77,54.22c0,.56-.4.8-1.28.8H93.42c-1.2,0-2.08-.8-2.79-2.32l-2.16-4.79A26.1,26.1,0,0,1,79.85,53a39.34,39.34,0,0,1-14.45,2c-1.44,0-2.24-.48-2.24-1.44s1.44-4.31,4.39-10.22c1.28-2.64,8.3-15.65,9.82-18.21,1.36-2.4-1.52-4.63-3.51-4.63H57.33V42.4c0,3.75-.16,8.15,1.28,12.46-4.47-.32-6.31-3.51-7.51-5.91-1.44-2.71-1.76-6.63-1.76-10.7V20.44h-.48c-3.43,0-5,1.84-6.95,6-.72,1.6-1.68,3-2.32,3-1.12,0-1.6-1.84-1.6-7a4.63,4.63,0,0,1,.64-3c.48-.72,1.6-1.12,3.19-1.12h7.51V9c0-1.84,1.12-2.79,3.75-2.79s4.23,1,4.23,2.87v9.26H79.85a7.7,7.7,0,0,1,7,4C92.3,32.34,100.77,54.14,100.77,54.22ZM87.51,45.43,79.21,27c-2,4.07-5.19,14.37-7,21.56a12.72,12.72,0,0,0,8.22.32C85.68,47.43,87.51,45.43,87.51,45.43Z"/><path class="cls-1" d="M104.35,21.24c0-2.16,1.68-2.71,3.91-2.71H120.4c8.22,0,10.54,2.4,10.54,5.75,0,2.63-1.92,5-7.59,8.3-1.84,1.12-4.39,2.16-4.39,3.19,0,1.76,4.87,6.95,10.86,13.89.88,1,3,2.87,3,4.15,0,.72-.64,1.28-2.63,1.28-4.15,0-5.19-.48-7.11-2.87-5.19-6.39-10-11.82-10-14.61A3,3,0,0,1,115,34.89c7.59-4.23,8.78-7.91,8.78-9.82,0-3.83-3.19-4.71-7-4.71s-4.55,0-4.55,2.08V52.78c0,1.2-1.76,2.16-3.91,2.16s-3.91-.88-3.91-2.16Z"/><path class="cls-1" d="M132.78,37.69c0-14.45,13.89-19.32,16.37-19.32,1.12,0,14.93,3.43,14.93,17.81,0,15.25-14.61,19.4-15.73,19.4S132.78,51.5,132.78,37.69Zm26.51,4.71c0-9.9-13.33-20.12-14.29-20.12-3.67.48-6.87,5.11-6.87,9.26C138.13,42,152.26,51,153.06,51,156.09,49.83,159.29,47.35,159.29,42.4Z"/><path class="cls-1" d="M181.8,18a16.4,16.4,0,0,1,11.82,7.27,2.46,2.46,0,0,1,.32,1.28,2.62,2.62,0,0,1-.64,1.68c-.8,1-3.59,3.91-4.07,3.91-1,0-2.08-2-3.75-3.91-4-4.71-7.83-6.23-8-6.23-.88,0-3.51,2.4-3.51,3.35,0,.08,0,.16.16.24,5.91,4.79,19.08,14.61,21,16a1.4,1.4,0,0,1,.56,1.28,8.68,8.68,0,0,1-1.2,3.43c-4.07,7.11-11.66,9.34-12.46,9.34a19.84,19.84,0,0,1-8.7-3.75c-3.91-2.87-6.07-6.15-6.07-7.35a2.77,2.77,0,0,1,.64-1.68c.88-1,3.27-4,4.15-4,1.44,0,3.19,3,5.83,5.75,3.67,3.91,6.87,6.15,7.75,6.15,2.71,0,4.39-2.32,4.39-3.27,0-1.12-12.62-10.06-19.8-16a3.74,3.74,0,0,1-1.52-3,5,5,0,0,1,.64-2.4C173.66,20.2,180.21,18,181.8,18Z"/><path class="cls-1" d="M207.43,42.8c0,3.75-.16,8.14,1.28,12.46-4.55-.32-6.31-3.59-7.51-5.91-1.44-2.79-1.76-6.63-1.76-10.78V9.5c0-1.84,1.12-2.71,3.75-2.71s4.15,1,4.15,2.87Z"/><path class="cls-1" d="M212.06,37.69c0-14.45,13.89-19.32,16.37-19.32,1.12,0,14.93,3.43,14.93,17.81,0,15.25-14.61,19.4-15.73,19.4S212.06,51.5,212.06,37.69Zm26.51,4.71c0-9.9-13.33-20.12-14.29-20.12-3.67.48-6.87,5.11-6.87,9.26C217.41,42,231.54,51,232.34,51,235.38,49.83,238.57,47.35,238.57,42.4Z"/><path class="cls-1" d="M249.75,18.6a3.38,3.38,0,0,1,2.79,2.24l10.14,23c1.84-4.79,6.15-20.36,6.87-22.92.56-2.08,1.6-2.32,3.67-2.32,2.32,0,4.39-.16,4.39,1.44,0,.8-1.52,4.23-4.39,10.14-5,10.06-12.86,25.07-14.13,25.07-1,0-1.36-1-2.79-4.07-5.59-11.42-13.89-31.86-13.89-31.86,0-.56.4-.72,1.28-.72Z"/><path class="cls-1" d="M293.82,33.46c2.88,0,3,2.56,3,4.23s-.24,1.76-.72,1.76a2.83,2.83,0,0,1-1.76-1.2c-1.52-1.84-2.32-2.24-4.31-2.24-1.36,0-3.19.16-6.07.16,2.63,8.78,13.17,14.77,14.05,14.77,1.84-.8,4.39-2.24,5.51-4.87a1.93,1.93,0,0,1,2-1.6c1,0,1.28.4,1.28.8a2.38,2.38,0,0,1-.24.88c-4,7-12.38,9.34-13.25,9.34-1.12,0-15.57-4.15-15.57-18,0-14.37,14-19.24,16.37-19.24.64,0,6.55.8,10.94,7.19a2.84,2.84,0,0,1,.32,1.28s-1.68,5-3.83,5c-.8,0-2-1.2-3.51-3-3.67-4.39-7.43-6.55-8.07-6.55-3.67.56-6.95,5.27-6.95,9.5a15.54,15.54,0,0,0,.16,1.84Z"/><path class="cls-1" d="M310.91,20.44c0-1.2,1.6-1.84,3.75-1.84s3.83.64,3.83,1.92V40a28.75,28.75,0,0,1,5.75-11.66c5.35-6.95,11.74-9.74,13.89-9.74,2.56,0,4.15.4,4.15,1.92V53.18c0,1.28-1.6,2-3.67,2s-3.83-.72-3.83-1.92V25.55c0,.08-3.59,0-9.34,6.15-6.87,7.35-6.95,14.05-6.95,20.2v1.28c0,1.28-1.76,2-3.83,2s-3.75-.72-3.75-1.92Z"/><path class="cls-1" d="M361,18a16.39,16.39,0,0,1,11.82,7.27,2.46,2.46,0,0,1,.32,1.28,2.61,2.61,0,0,1-.64,1.68c-.8,1-3.59,3.91-4.07,3.91-1,0-2.08-2-3.75-3.91-4-4.71-7.83-6.23-8-6.23-.88,0-3.51,2.4-3.51,3.35,0,.08,0,.16.16.24,5.91,4.79,19.08,14.61,21,16a1.4,1.4,0,0,1,.56,1.28,8.69,8.69,0,0,1-1.2,3.43c-4.07,7.11-11.66,9.34-12.46,9.34a19.84,19.84,0,0,1-8.7-3.75c-3.91-2.87-6.07-6.15-6.07-7.35a2.77,2.77,0,0,1,.64-1.68c.88-1,3.27-4,4.15-4,1.44,0,3.19,3,5.83,5.75,3.67,3.91,6.87,6.15,7.75,6.15,2.71,0,4.39-2.32,4.39-3.27,0-1.12-12.62-10.06-19.8-16a3.74,3.74,0,0,1-1.52-3,5,5,0,0,1,.64-2.4C352.9,20.2,359.45,18,361,18Z"/><path class="cls-1" d="M379.17,8.94c0-1.28,1.84-2.08,3.91-2.08s4,.8,4,2V53.18c0,1.2-1.84,2.08-4,2.08s-3.91-.88-3.91-2.16Zm21.4,15.81c-3.59,0-8.22,7.19-8.22,8.54,0,3.83,9.18,11.66,16.61,17.89a1.38,1.38,0,0,1,.48,1c0,1.68-2.55,3.51-4.87,3.51a4.41,4.41,0,0,1-3.11-1c-1.6-1.36-9-8.3-10.46-9.74-3.27-3.27-3.35-6-3.35-7.67,0-2.08,1.76-5.51,4.23-8.54,5.27-6.55,9.26-9.9,11.58-9.9s4.39,1.92,4.39,5.35c0,2.4-.88,3.59-2.08,3.59-1.6,0-3.11-2-3.11-2A2.76,2.76,0,0,0,400.57,24.75Z"/><path class="cls-1" d="M441.53,55.1c-1.2,0-2-.8-2.71-2.32L436.66,48A26.1,26.1,0,0,1,428,53.1a38,38,0,0,1-12.46,2c-2.87,0-4.23,0-4.23-1.52,0-.56,6.31-14.77,14.13-28.35a2.38,2.38,0,0,0,.4-1.2c0-3.51-5.91-3.11-5.91-4.63,0-.72,4.23-1,8.06-1a8.13,8.13,0,0,1,7,4c5.35,10,13.81,31.86,13.81,31.94q0,.72-1.2.72Zm-14.13-28c-2,4.07-5.27,14.37-7.11,21.56a10.21,10.21,0,0,0,4.39.88,15.31,15.31,0,0,0,3.91-.56c5.27-1.44,7-3.43,7-3.43Z"/><path class="cls-1" d="M524.33,20.44V53.1c0,1.28-1.68,1.92-3.75,1.92s-3.75-.64-3.75-1.92V25.47s-3.59-.08-9.34,6.15c-5.43,5.83-6.71,11.1-6.95,16.13V53.1c0,1.28-1.6,1.92-3.75,1.92S493,54.38,493,53.1V25.47s-3.59-.08-9.34,6.15c-6.95,7.43-7,14-7,20.2V53.1c0,1.28-1.68,1.92-3.83,1.92s-3.67-.64-3.67-1.92V20.36c0-1.2,1.6-1.84,3.67-1.84s3.83.64,3.83,1.92v19.4a31.25,31.25,0,0,1,5.83-11.58c5.27-7,11.66-9.82,13.89-9.74h.72c2.16,0,3.43.64,3.43,1.92V39.61a31,31,0,0,1,5.67-11.34c5.35-7,11.74-9.82,13.89-9.74h.8C523,18.53,524.33,19.16,524.33,20.44Z"/><path class="cls-1" d="M567.2,22.6c0,5.27-.56,7.11-1.6,7.11-.64,0-1.6-1.52-2.32-3.11-1.92-4.15-3.59-5.91-6.95-5.91h-.56v22c0,3.75-.08,8.14,1.36,12.46-4.47-.32-6.31-3.59-7.51-5.91-1.44-2.79-1.76-6.63-1.76-10.78V20.68h-8.54a1.63,1.63,0,0,0-1.84,1.84V52.86c0,1.36-1.84,2.24-4,2.24s-3.91-.88-3.91-2.16V20.6c0-1.2,1.6-2,4-2h14.29V9.18c0-1.84,1.12-2.79,3.67-2.79s4.23,1,4.23,2.87V18.6h7.59a3.84,3.84,0,0,1,3.19,1.12A4.91,4.91,0,0,1,567.2,22.6Zm-37.61-10V8.54c0-1.2,1.84-2,3.91-2s4,.8,4,2.08v3.91c0,1.28-1.84,2.16-4,2.16S529.59,13.81,529.59,12.62Z"/><path class="cls-1" d="M569.83,37.69c0-14.45,13.89-19.32,16.37-19.32,1.12,0,14.93,3.43,14.93,17.81,0,15.25-14.61,19.4-15.73,19.4S569.83,51.5,569.83,37.69Zm26.51,4.71c0-9.9-13.33-20.12-14.29-20.12-3.67.48-6.87,5.11-6.87,9.26C575.18,42,589.32,51,590.12,51,593.15,49.83,596.34,47.35,596.34,42.4Z"/><path class="cls-1" d="M614.31,42.8c0,3.75-.16,8.14,1.28,12.46-4.55-.32-6.31-3.59-7.51-5.91-1.44-2.79-1.76-6.63-1.76-10.78V9.5c0-1.84,1.12-2.71,3.75-2.71s4.15,1,4.15,2.87Z"/><path class="cls-1" d="M618.94,37.69c0-14.45,13.89-19.32,16.37-19.32,1.12,0,14.93,3.43,14.93,17.81,0,15.25-14.61,19.4-15.73,19.4S618.94,51.5,618.94,37.69Zm26.51,4.71c0-9.9-13.33-20.12-14.29-20.12-3.67.48-6.87,5.11-6.87,9.26C624.29,42,638.42,51,639.22,51,642.25,49.83,645.45,47.35,645.45,42.4Z"/><path class="cls-1" d="M681.3,56.21c0,9.1-12.3,14.21-13.1,14.21s-14.37-5.83-14.37-15.17c0-5.27,5-8.06,7.51-10a14.41,14.41,0,0,1-7.51-12.54c0-10.38,12.3-14.61,13-14.61,1.68,0,14.29,5.11,14.29,15.09,0,6.47-1.68,9.34-6.47,13.57-3.59,3.27-14.93,9.26-14.93,14.29,0,1.52,1.36,3.51,2.79,3.51,2,0,14.61-8.46,16.77-14.37A8.52,8.52,0,0,1,681.3,56.21Zm-5.51-27.63c0-1.2-1.68-6.55-4.55-6.55-.88,0-13.18,8.62-13.18,15.73a8.07,8.07,0,0,0,4.47,6.47C663.17,44.24,675.79,36.65,675.79,28.59Z"/><path class="cls-1" d="M693.67,8.7v4c0,1.2-1.84,2.08-3.91,2.08s-4-.88-4-2.16V8.78c0-1.36,1.92-2.16,4-2.16S693.67,7.43,693.67,8.7Zm0,12V53.1c0,1.2-1.84,2.08-3.91,2.08s-4-.88-4-2.16V20.76c0-1.28,1.92-2.08,4-2.08S693.67,19.48,693.67,20.68Z"/><path class="cls-1" d="M699.26,21.32c0-1.92,1.6-2.87,4.31-2.87,2.56,0,3.67.88,3.67,2.71V53.9c0,4.15-.32,8-1.76,10.78-1.2,2.32-3,5.59-7.51,5.91,1.36-4.31,1.28-8.7,1.28-12.46Zm.08-12.86c0-1.36,1.84-2.16,3.91-2.16s4,.8,4,2.08v4c0,1.2-1.84,2.08-4,2.08s-3.91-.88-3.91-2.16Z"/><path class="cls-1" d="M741.1,55.1c-1.2,0-2-.8-2.71-2.32L736.23,48a26.1,26.1,0,0,1-8.62,5.11,38,38,0,0,1-12.46,2c-2.87,0-4.23,0-4.23-1.52,0-.56,6.31-14.77,14.13-28.35a2.38,2.38,0,0,0,.4-1.2c0-3.51-5.91-3.11-5.91-4.63,0-.72,4.23-1,8.06-1a8.13,8.13,0,0,1,7,4c5.35,10,13.81,31.86,13.81,31.94q0,.72-1.2.72ZM727,27.07c-2,4.07-5.27,14.37-7.11,21.56a10.21,10.21,0,0,0,4.39.88,15.31,15.31,0,0,0,3.91-.56c5.27-1.44,7-3.43,7-3.43Z"/></g></g></svg>